<svg id="圖層_1" data-name="圖層 1" xmlns="http://www.w3.org/2000/svg" viewBox="0 0 27.71 32"><defs><style>.cls-1{fill:#444;}.cls-2{fill:#282828;}.cls-3{fill:#cecece;}</style></defs><title>Carloslogo</title><polygon class="cls-1" points="27.71 24 27.71 8 13.86 0 0 8 0 24 13.86 32 27.71 24"/><polygon class="cls-2" points="13.73 15.86 13.73 31.98 27.68 23.92 13.73 15.86"/><polygon class="cls-2" points="13.73 15.86 27.68 23.92 27.68 7.81 13.73 15.86"/><path class="cls-3" d="M11,24.68l-7.53-.39L6.8,21l1.3.15a4.32,4.32,0,0,0,1-2.65L10,10.65c-3,.19-3,1.51-3,2.1a3.05,3.05,0,0,0,.41,1.49l.35.65L4.24,18.26l-.46-1.53a7.42,7.42,0,0,1-.29-2A6.65,6.65,0,0,1,6,9.3a9.86,9.86,0,0,1,6.37-2h2.08l-.23,1.17c-.34,1.68-.54,2.82-.61,3.38V12c2.81-3.11,5.21-4.63,7.31-4.63a6.76,6.76,0,0,1,1.87.26l1.5.45-3,3.3-.68-.4c-.84-.49-2-.21-3.3.9a9.19,9.19,0,0,0-2.11,2.75A28.49,28.49,0,0,0,17.31,18l1.21,1.64a4.73,4.73,0,0,0,1.17,1.26c.21-.05.49-.35.77-.83l.58-1,.89.76A1.6,1.6,0,0,1,22.58,21a3.37,3.37,0,0,1-1.29,2.31A3.52,3.52,0,0,1,19,24.54c-1.21,0-2.53-1.11-4.29-3.6C14,20,13.42,19.11,12.9,18.25l-.05.38A6.15,6.15,0,0,1,12,21.39v0l2.21.14ZM12.09,9.27v0Z"/></svg>