<svg id="圖層_1" data-name="圖層 1" xmlns="http://www.w3.org/2000/svg" viewBox="0 0 27.71 32"><defs><style>.cls-2{fill:#282828}</style></defs><path fill="#444" d="M27.71 24V8L13.86 0 0 8v16l13.86 8 13.85-8z"/><path class="cls-2" d="M13.73 15.86v16.12l13.95-8.06-13.95-8.06z"/><path class="cls-2" d="M13.73 15.86l13.95 8.06V7.81l-13.95 8.05z"/><path d="M11 24.68l-7.53-.39L6.8 21l1.3.15a4.32 4.32 0 001-2.65l.9-7.85c-3 .19-3 1.51-3 2.1a3.05 3.05 0 00.41 1.49l.35.65-3.52 3.37-.46-1.53a7.42 7.42 0 01-.29-2A6.65 6.65 0 016 9.3a9.86 9.86 0 016.37-2h2.08l-.23 1.17c-.34 1.68-.54 2.82-.61 3.38V12c2.81-3.11 5.21-4.63 7.31-4.63a6.76 6.76 0 011.87.26l1.5.45-3 3.3-.68-.4c-.84-.49-2-.21-3.3.9a9.19 9.19 0 00-2.11 2.75A28.49 28.49 0 0017.31 18l1.21 1.64a4.73 4.73 0 001.17 1.26c.21-.05.49-.35.77-.83l.58-1 .89.76a1.6 1.6 0 01.65 1.17 3.37 3.37 0 01-1.29 2.31A3.52 3.52 0 0119 24.54c-1.21 0-2.53-1.11-4.29-3.6-.71-.94-1.29-1.83-1.81-2.69l-.05.38a6.15 6.15 0 01-.85 2.76l2.21.14zm1.09-15.41z" fill="#cecece"/></svg>